<svg width="617" height="525" viewBox="0 0 617 525" fill="none" xmlns="http://www.w3.org/2000/svg">
<path d="M565.918 164.465C554.916 160.94 543.083 161.562 532.288 165.502C514.85 171.722 485.995 186.649 473.54 219.408C455.064 267.923 483.919 326.806 511.736 338.416C539.554 350.027 592.697 339.66 608.889 306.072C623.421 275.595 623.006 182.503 565.918 164.465Z" fill="url(#paint0_linear_659_1890)"/>
<path d="M423.51 290.315C408.979 223.347 502.81 176.698 458.801 106.827C410.224 29.6995 321.79 -7.62012 231.903 1.29513C209.276 3.57578 187.894 8.13707 170.041 14.7717C106.518 39.2368 54.8277 89.2037 30.1243 152.44C11.4411 200.541 2.92983 252.581 22.8586 301.511C31.5775 322.866 50.2607 340.49 56.0733 362.467C64.5845 394.188 56.2809 429.227 67.4908 460.327C84.0981 506.562 139.733 516.099 182.289 507.391C215.919 500.549 246.85 479.402 281.31 476.706C321.168 473.389 351.061 495.366 385.313 510.709C440.118 535.174 526.061 530.198 544.951 461.364C552.217 434.825 544.951 404.762 526.476 384.444C496.998 351.893 433.682 337.794 423.51 290.315Z" fill="url(#paint1_linear_659_1890)"/>
<path d="M53.9969 284.717C42.9946 280.363 55.2425 301.304 53.1666 299.023C51.0906 296.743 28.6708 255.069 21.4051 262.533C14.3469 269.997 26.5948 282.022 24.9341 281.193C23.2734 280.363 0.645911 254.24 0.0231362 267.716C-0.80723 281.193 20.9899 293.84 20.9899 293.84C20.9899 293.84 2.09905 289.486 10.4027 297.779C18.7064 306.073 37.8048 311.67 37.8048 311.67C37.8048 311.67 18.0836 309.597 26.8024 316.439C35.5213 323.074 54.2045 327.22 54.2045 327.22C54.2045 327.22 36.3517 327.635 45.4857 330.745C54.6197 333.855 82.0218 341.734 82.0218 341.734C82.0218 341.734 64.9993 289.071 53.9969 284.717Z" fill="url(#paint2_linear_659_1890)"/>
<path d="M130.183 300.682C126.238 302.34 132.258 296.742 133.296 282.851C134.542 268.96 109.839 308.146 107.14 310.219C104.441 312.292 107.97 308.146 105.479 297.157C103.196 286.169 80.9834 342.77 80.9834 342.77C80.9834 342.77 122.709 331.367 131.013 328.464C139.317 325.769 127.069 321.83 127.069 321.83C127.069 321.83 145.752 323.074 156.339 318.72C167.134 314.366 144.922 311.256 142.43 309.182C140.147 307.109 153.433 306.487 162.567 290.108C171.701 273.729 134.127 299.023 130.183 300.682Z" fill="url(#paint3_linear_659_1890)"/>
<path d="M131.636 268.96C128.107 270.619 142.016 252.788 143.054 240.763C144.299 228.945 118.143 265.643 115.652 270.411C113.368 275.18 117.728 262.118 113.991 250.3C110.462 238.482 98.8368 284.717 96.9685 289.071C94.8926 293.425 96.5533 284.717 91.3635 272.485C86.1737 260.252 81.3991 340.697 81.8143 342.563C81.8143 342.563 100.498 325.147 106.102 314.78C111.707 304.414 103.819 306.487 103.819 306.487C103.819 306.487 116.897 300.06 123.955 294.254C131.013 288.242 117.312 284.717 117.52 283.473C117.935 282.229 139.317 275.18 146.79 266.472C154.679 257.764 135.165 267.301 131.636 268.96Z" fill="url(#paint4_linear_659_1890)"/>
<path d="M76.6241 299.023C76.6241 299.023 80.9835 285.132 81.8139 275.18C82.6443 265.228 72.6799 272.07 72.6799 272.07C72.6799 272.07 74.9634 253.825 71.8495 240.348C68.7356 226.872 66.6597 252.996 65.4142 254.654C64.1686 256.313 62.3003 248.02 51.0904 235.165C40.088 222.518 58.9788 264.399 60.2244 270.411C61.4699 276.424 57.9409 267.301 45.0702 263.362C32.4071 259.423 62.0927 303.377 62.0927 305.243C62.0927 307.316 60.0168 302.133 50.26 298.816C40.2956 295.706 79.9456 338.416 81.6063 341.526C81.6063 341.526 84.7202 313.329 85.9657 302.34C87.2113 291.559 76.6241 299.023 76.6241 299.023Z" fill="url(#paint5_linear_659_1890)"/>
<path d="M76.832 280.778C76.832 280.778 77.0396 280.778 76.832 280.778C77.2472 281.193 77.2472 281.193 76.832 280.778Z" fill="url(#paint6_linear_659_1890)"/>
<path d="M91.9862 231.018C91.9862 231.018 90.7406 215.261 82.437 207.59C74.1333 200.126 79.7383 247.19 79.3231 249.471C78.9079 251.752 77.2472 243.873 68.3208 240.763C59.3943 237.653 75.794 278.083 77.0396 280.571C77.2472 280.985 77.2472 281.193 77.0396 280.778C77.0396 280.778 77.0396 280.778 77.0396 280.571C76.2092 279.534 73.5105 276.217 67.2828 276.009C58.564 275.595 81.6066 340.904 81.6066 342.148C81.6066 342.148 96.9684 324.732 98.6291 316.854C100.29 308.975 89.4951 314.158 89.4951 314.158C89.4951 314.158 97.7987 306.694 103.819 290.315C109.839 274.143 91.571 285.961 91.1558 284.717C90.7406 283.473 104.649 273.936 108.178 254.24C110.877 239.104 100.497 246.361 95.3077 250.715C93.6469 252.166 92.609 252.996 92.609 252.996C92.609 252.996 93.6469 251.959 95.3077 250.715C99.8747 246.361 108.801 235.787 110.877 220.237C113.368 199.297 91.9862 231.018 91.9862 231.018Z" fill="url(#paint7_linear_659_1890)"/>
<path d="M95.1001 250.715C93.4393 251.959 92.4014 252.995 92.4014 252.995C92.4014 252.995 93.4393 252.373 95.1001 250.715Z" fill="url(#paint8_linear_659_1890)"/>
<path d="M59.8091 425.081H107.97L119.388 348.575H48.3916L59.8091 425.081Z" fill="url(#paint9_linear_659_1890)"/>
<path d="M125.408 335.721H42.3717C40.711 335.721 39.2578 337.172 39.2578 338.831V348.783C39.2578 350.441 40.711 351.893 42.3717 351.893H125.408C127.069 351.893 128.522 350.441 128.522 348.783V338.831C128.522 337.172 127.069 335.721 125.408 335.721Z" fill="url(#paint10_linear_659_1890)"/>
<path d="M574.014 151.196L549.103 143.317C546.819 142.695 544.328 143.939 543.705 146.22L491.6 308.768C490.977 311.048 492.015 313.536 494.299 314.158L520.04 322.659C522.323 323.488 524.815 322.244 525.437 319.756L576.92 156.587C577.543 154.306 576.297 152.025 574.014 151.196Z" fill="#84D2E6"/>
<path d="M543.705 146.22L491.6 308.768C490.977 311.048 492.015 313.536 494.299 314.158L508 318.72L562.804 147.671L548.895 143.317C546.819 142.695 544.536 143.939 543.705 146.22Z" fill="#97DEEF"/>
<path d="M554.5 162.392L543.705 158.867C543.29 158.66 542.874 158.867 542.874 159.282C542.667 159.697 542.874 160.111 543.29 160.111L554.084 163.636C554.5 163.843 554.915 163.636 554.915 163.221C554.915 163.014 554.707 162.599 554.5 162.392Z" fill="white"/>
<path d="M548.273 164.465L542.461 162.599C542.045 162.392 541.63 162.599 541.63 163.014C541.423 163.428 541.63 163.843 542.045 163.843L547.858 165.709C548.273 165.916 548.688 165.709 548.688 165.294C548.896 164.88 548.688 164.465 548.273 164.465Z" fill="white"/>
<path d="M547.234 167.783L541.422 165.917C541.006 165.709 540.591 165.917 540.591 166.331C540.384 166.746 540.591 167.161 541.006 167.161L546.819 169.027C547.234 169.234 547.649 169.027 547.649 168.612C547.857 168.405 547.649 167.99 547.234 167.783Z" fill="white"/>
<path d="M545.988 171.514L540.176 169.648C539.76 169.441 539.345 169.648 539.345 170.063C539.138 170.478 539.345 170.892 539.76 170.892L545.573 172.758C545.988 172.966 546.403 172.758 546.403 172.344C546.611 172.136 546.403 171.722 545.988 171.514Z" fill="white"/>
<path d="M544.951 174.832L539.138 172.966C538.723 172.758 538.308 172.966 538.308 173.38C538.1 173.795 538.308 174.21 538.723 174.21L544.536 176.076C544.951 176.283 545.366 176.076 545.366 175.661C545.574 175.454 545.366 175.039 544.951 174.832Z" fill="white"/>
<path d="M548.687 180.015L537.892 176.49C537.477 176.283 537.062 176.49 537.062 176.905C536.854 177.32 537.062 177.734 537.477 177.734L548.272 181.259C548.687 181.466 549.102 181.259 549.102 180.844C549.31 180.637 549.102 180.222 548.687 180.015Z" fill="white"/>
<path d="M542.668 181.881L536.855 180.015C536.44 179.808 536.025 180.015 536.025 180.43C535.817 180.844 536.025 181.259 536.44 181.259L542.253 183.125C542.668 183.332 543.083 183.125 543.083 182.71C543.291 182.503 543.083 182.088 542.668 181.881Z" fill="white"/>
<path d="M541.629 185.406L535.816 183.54C535.401 183.332 534.986 183.54 534.986 183.954C534.778 184.369 534.986 184.784 535.401 184.784L541.214 186.65C541.629 186.857 542.044 186.65 542.044 186.235C542.251 186.028 541.836 185.613 541.629 185.406Z" fill="white"/>
<path d="M540.383 189.138L534.57 187.272C534.155 187.064 533.74 187.272 533.74 187.686C533.532 188.101 533.74 188.516 534.155 188.516L539.967 190.382C540.383 190.589 540.798 190.382 540.798 189.967C541.005 189.76 540.798 189.345 540.383 189.138Z" fill="white"/>
<path d="M539.345 192.455L533.533 190.589C533.118 190.382 532.703 190.589 532.703 191.004C532.495 191.418 532.703 191.833 533.118 191.833L538.93 193.699C539.345 193.906 539.761 193.699 539.761 193.284C539.968 192.87 539.761 192.455 539.345 192.455Z" fill="white"/>
<path d="M543.082 197.638L532.287 194.114C531.872 193.906 531.456 194.114 531.456 194.528C531.249 194.943 531.456 195.358 531.872 195.358L542.666 198.882C543.082 199.09 543.497 198.882 543.497 198.468C543.704 198.26 543.497 197.846 543.082 197.638Z" fill="white"/>
<path d="M537.062 199.504L531.25 197.638C530.835 197.431 530.419 197.638 530.419 198.053C530.212 198.468 530.419 198.882 530.835 198.882L536.647 200.748C537.062 200.956 537.477 200.748 537.477 200.334C537.685 200.126 537.477 199.712 537.062 199.504Z" fill="white"/>
<path d="M535.816 203.029L530.004 201.163C529.588 200.956 529.173 201.163 529.173 201.578C528.966 201.992 529.173 202.407 529.588 202.407L535.401 204.273C535.816 204.48 536.231 204.273 536.231 203.858C536.439 203.651 536.231 203.236 535.816 203.029Z" fill="white"/>
<path d="M534.777 206.761L528.965 204.895C528.549 204.687 528.134 204.895 528.134 205.309C527.927 205.724 528.134 206.139 528.549 206.139L534.362 208.005C534.777 208.212 535.192 208.005 535.192 207.59C535.4 207.383 535.192 206.968 534.777 206.761Z" fill="white"/>
<path d="M533.74 210.078L527.927 208.212C527.512 208.005 527.097 208.212 527.097 208.627C526.889 209.041 527.097 209.456 527.512 209.456L533.325 211.322C533.74 211.529 534.155 211.322 534.155 210.907C534.363 210.493 533.948 210.078 533.74 210.078Z" fill="white"/>
<path d="M537.476 215.261L526.681 211.737C526.266 211.529 525.851 211.737 525.851 212.151C525.643 212.566 525.851 212.981 526.266 212.981L537.061 216.505C537.476 216.713 537.891 216.505 537.891 216.091C538.099 215.883 537.891 215.469 537.476 215.261Z" fill="white"/>
<path d="M531.457 217.127L525.644 215.261C525.229 215.054 524.814 215.261 524.814 215.676C524.606 216.091 524.814 216.505 525.229 216.505L531.042 218.371C531.457 218.579 531.872 218.371 531.872 217.957C531.872 217.749 531.664 217.335 531.457 217.127Z" fill="white"/>
<path d="M530.211 220.652L524.398 218.786C523.983 218.579 523.568 218.786 523.568 219.201C523.36 219.615 523.568 220.03 523.983 220.03L529.796 221.896C530.211 222.103 530.626 221.896 530.626 221.481C530.833 221.274 530.626 220.859 530.211 220.652Z" fill="white"/>
<path d="M528.965 224.384L523.152 222.518C522.737 222.311 522.322 222.518 522.322 222.933C522.114 223.347 522.322 223.762 522.737 223.762L528.549 225.628C528.965 225.835 529.38 225.628 529.38 225.213C529.587 224.799 529.38 224.384 528.965 224.384Z" fill="white"/>
<path d="M527.928 227.701L522.115 225.835C521.7 225.628 521.285 225.835 521.285 226.25C521.077 226.665 521.285 227.079 521.7 227.079L527.512 228.945C527.928 229.153 528.343 228.945 528.343 228.531C528.55 228.116 528.343 227.701 527.928 227.701Z" fill="white"/>
<path d="M531.871 232.885L521.076 229.36C520.661 229.153 520.246 229.36 520.246 229.775C520.038 230.189 520.245 230.604 520.661 230.604L531.455 234.129C531.871 234.336 532.286 234.129 532.286 233.714C532.493 233.299 532.286 232.885 531.871 232.885Z" fill="white"/>
<path d="M525.644 234.751L519.832 232.885C519.417 232.677 519.001 232.885 519.001 233.299C518.794 233.714 519.001 234.129 519.417 234.129L525.229 235.995C525.644 236.202 526.059 235.995 526.059 235.58C526.267 235.373 526.059 234.958 525.644 234.751Z" fill="white"/>
<path d="M524.605 238.275L518.793 236.409C518.377 236.202 517.962 236.409 517.962 236.824C517.755 237.239 517.962 237.653 518.377 237.653L524.19 239.519C524.605 239.727 525.02 239.519 525.02 239.105C525.228 238.69 525.02 238.275 524.605 238.275Z" fill="white"/>
<path d="M523.359 242.007L517.547 240.141C517.131 239.934 516.716 240.141 516.716 240.556C516.509 240.97 516.716 241.385 517.131 241.385L522.944 243.251C523.359 243.458 523.774 243.251 523.774 242.836C523.982 242.422 523.774 242.007 523.359 242.007Z" fill="white"/>
<path d="M522.322 245.325L516.509 243.459C516.094 243.251 515.679 243.459 515.679 243.873C515.471 244.288 515.679 244.703 516.094 244.703L521.907 246.569C522.322 246.776 522.737 246.568 522.737 246.154C522.945 245.739 522.737 245.325 522.322 245.325Z" fill="white"/>
<path d="M526.058 250.508L515.263 246.983C514.848 246.776 514.433 246.983 514.433 247.398C514.225 247.812 514.433 248.227 514.848 248.227L525.643 251.752C526.058 251.959 526.473 251.752 526.473 251.337C526.681 250.922 526.473 250.508 526.058 250.508Z" fill="white"/>
<path d="M520.039 252.374L514.226 250.508C513.811 250.3 513.396 250.508 513.396 250.922C513.188 251.337 513.396 251.752 513.811 251.752L519.624 253.618C520.039 253.825 520.454 253.618 520.454 253.203C520.662 252.788 520.454 252.581 520.039 252.374Z" fill="white"/>
<path d="M519 255.898L513.187 254.032C512.772 253.825 512.357 254.032 512.357 254.447C512.149 254.862 512.357 255.276 512.772 255.276L518.585 257.142C519 257.35 519.415 257.142 519.415 256.728C519.622 256.313 519.415 255.898 519 255.898Z" fill="white"/>
<path d="M517.754 259.63L511.941 257.764C511.526 257.557 511.111 257.764 511.111 258.179C510.903 258.594 511.111 259.008 511.526 259.008L517.338 260.874C517.754 261.082 518.169 260.874 518.169 260.46C518.376 260.045 518.169 259.63 517.754 259.63Z" fill="white"/>
<path d="M516.717 262.74L510.904 260.874C510.489 260.667 510.074 260.874 510.074 261.289C509.866 261.704 510.074 262.118 510.489 262.118L516.301 263.984C516.717 264.192 517.132 263.984 517.132 263.57C517.339 263.362 517.132 262.948 516.717 262.74Z" fill="white"/>
<path d="M520.455 268.131L509.66 264.606C509.245 264.399 508.829 264.606 508.829 265.021C508.622 265.436 508.829 265.85 509.245 265.85L520.039 269.375C520.455 269.582 520.87 269.375 520.87 268.96C521.077 268.546 520.87 268.131 520.455 268.131Z" fill="white"/>
<path d="M514.435 269.997L508.623 268.131C508.208 267.924 507.792 268.131 507.792 268.546C507.585 268.96 507.792 269.375 508.208 269.375L514.02 271.241C514.435 271.448 514.85 271.241 514.85 270.826C515.058 270.412 514.85 269.997 514.435 269.997Z" fill="white"/>
<path d="M513.396 273.522L507.584 271.656C507.168 271.448 506.753 271.656 506.753 272.07C506.546 272.485 506.753 272.9 507.168 272.9L512.981 274.766C513.396 274.973 513.811 274.766 513.811 274.351C513.811 273.936 513.604 273.522 513.396 273.522Z" fill="white"/>
<path d="M512.15 277.046L506.338 275.18C505.922 274.973 505.507 275.18 505.507 275.595C505.3 276.01 505.507 276.424 505.922 276.424L511.735 278.29C512.15 278.498 512.565 278.29 512.565 277.876C512.773 277.668 512.565 277.254 512.15 277.046Z" fill="white"/>
<path d="M511.113 280.363L505.3 278.497C504.885 278.29 504.47 278.497 504.47 278.912C504.263 279.327 504.47 279.741 504.885 279.741L510.698 281.607C511.113 281.815 511.528 281.607 511.528 281.193C511.736 280.985 511.528 280.571 511.113 280.363Z" fill="white"/>
<path d="M514.849 285.547L504.054 282.022C503.639 281.815 503.224 282.022 503.224 282.437C503.016 282.851 503.224 283.266 503.639 283.266L514.434 286.791C514.849 286.998 515.264 286.791 515.264 286.376C515.472 286.169 515.264 285.754 514.849 285.547Z" fill="white"/>
<path d="M508.83 287.62L503.017 285.754C502.602 285.547 502.187 285.754 502.187 286.169C501.979 286.583 502.187 286.998 502.602 286.998L508.415 288.864C508.83 289.071 509.245 288.864 509.245 288.449C509.245 288.035 509.245 287.62 508.83 287.62Z" fill="white"/>
<path d="M507.584 290.937L501.771 289.071C501.356 288.864 500.941 289.071 500.941 289.486C500.733 289.901 500.941 290.315 501.356 290.315L507.169 292.181C507.584 292.389 507.999 292.181 507.999 291.767C508.207 291.559 507.999 291.145 507.584 290.937Z" fill="white"/>
<path d="M506.545 294.669L500.733 292.803C500.318 292.596 499.902 292.803 499.902 293.218C499.902 293.633 499.902 294.047 500.318 294.047L506.13 295.913C506.545 296.121 506.96 295.913 506.96 295.499C506.96 295.291 506.753 294.877 506.545 294.669Z" fill="white"/>
<path d="M505.508 297.987L499.695 296.121C499.28 295.913 498.865 296.121 498.865 296.535C498.657 296.95 498.865 297.365 499.28 297.365L505.092 299.231C505.508 299.438 505.923 299.231 505.923 298.816C505.923 298.609 505.715 298.194 505.508 297.987Z" fill="white"/>
<path d="M561.559 185.613L556.161 184.991C554.501 184.784 553.047 186.028 552.84 187.686L551.387 202.614L562.804 203.651L564.257 188.723C564.465 187.272 563.219 185.613 561.559 185.613Z" fill="#F2EC22"/>
<path d="M544.536 331.574L556.161 304.207L538.516 302.548L544.536 331.574Z" fill="#A7A7A7"/>
<path d="M545.365 329.294L556.16 304.207L548.064 303.377L545.365 329.294Z" fill="#DBD8D5"/>
<path d="M546.611 326.391L556.161 304.206L548.895 303.584L546.611 326.391Z" fill="#7C7B79"/>
<path d="M563.218 201.163L551.593 199.919C549.932 199.711 548.272 200.955 548.272 202.821L538.515 301.511C538.307 303.17 539.553 304.828 541.421 304.828L553.046 306.072C554.707 306.28 556.368 305.036 556.368 303.17L566.124 204.48C566.332 202.821 565.086 201.37 563.218 201.163Z" fill="#23538C"/>
<path d="M548.065 202.821L538.308 301.511C538.1 303.17 539.346 304.828 541.214 304.828L546.819 305.45L557.199 200.541L551.594 199.919C549.933 199.711 548.272 201.163 548.065 202.821Z" fill="#144270"/>
<path d="M571.522 210.493L547.027 208.005C546.611 208.005 545.989 208.419 545.989 208.834L545.158 217.957C545.158 218.371 545.573 218.993 545.989 218.993L567.163 221.067C567.578 221.067 567.993 221.481 567.993 222.103L566.125 240.763C566.125 241.178 565.71 241.592 565.087 241.592H564.672C564.049 241.592 563.426 242.214 563.634 242.836L566.54 252.788C566.748 253.203 566.955 253.41 567.37 253.41C567.786 253.41 568.408 252.996 568.408 252.581L571.522 221.481L572.56 211.529C572.353 210.907 572.145 210.493 571.522 210.493Z" fill="#F2EC22"/>
<path d="M544.535 331.574L546.61 326.391L543.289 326.184L544.535 331.574Z" fill="#0E2142"/>
<path d="M556.576 299.645L538.723 297.987C538.1 297.987 537.685 298.401 537.685 298.816L537.27 303.999C537.27 304.621 537.685 305.036 538.1 305.036L555.953 306.694C556.576 306.694 556.991 306.28 556.991 305.865L557.406 300.682C557.613 300.06 557.198 299.645 556.576 299.645Z" fill="#0E2142"/>
<path d="M515.474 226.457L496.168 231.433L517.55 313.329C517.757 314.366 518.38 315.402 519.003 316.232L531.874 330.952C532.289 331.367 532.912 331.16 532.912 330.745L536.856 311.671C537.063 310.634 537.063 309.597 536.856 308.353L515.474 226.457Z" fill="#FCD7A3"/>
<path d="M532.08 330.952C532.495 331.367 533.118 331.16 533.118 330.745L534.571 323.488L527.098 325.354L532.08 330.952Z" fill="#0F2145"/>
<path d="M509.037 228.116L502.602 229.775L523.983 311.878C524.399 313.744 526.267 314.78 527.928 314.158C529.796 313.744 530.834 311.878 530.211 310.219L509.037 228.116Z" fill="white"/>
<path d="M515.474 226.457L509.039 228.116L530.421 310.219C530.836 312.085 532.704 313.122 534.365 312.5C536.234 312.085 537.271 310.219 536.649 308.561L515.474 226.457Z" fill="#F23436"/>
<path d="M502.603 229.775L496.168 231.433L517.55 313.537C517.965 315.403 519.833 316.439 521.494 315.817C523.362 315.403 524.4 313.537 523.778 311.878L502.603 229.775Z" fill="#F23436"/>
<path d="M502.187 201.785L495.752 203.443C492.223 204.273 490.147 208.005 490.977 211.529L495.544 228.738L514.85 223.762L510.283 206.553C509.245 203.029 505.716 200.748 502.187 201.785Z" fill="#FE6F71"/>
<path d="M513.877 219.874L494.604 224.936L496.768 233.156L516.041 228.095L513.877 219.874Z" fill="#0F2145"/>
<path d="M472.71 413.885C472.71 420.105 477.692 425.081 483.919 425.081H565.711C571.938 425.081 576.92 420.105 576.92 413.885V274.973H472.502V413.885H472.71Z" fill="url(#paint11_linear_659_1890)"/>
<path d="M525.854 425.081H565.919C572.146 425.081 577.129 420.105 577.129 413.885V274.973H525.854V425.081Z" fill="#D3D3D3"/>
<path d="M556.369 425.081H565.918C572.146 425.081 577.128 420.105 577.128 413.885V274.973H556.369V425.081Z" fill="#D3D3D3"/>
<path d="M577.128 272.277H472.709C471.671 272.277 470.841 273.107 470.841 274.143V281.815C470.841 282.851 471.671 283.681 472.709 283.681H577.128C578.166 283.681 578.996 282.851 578.996 281.815V274.143C578.996 273.107 578.166 272.277 577.128 272.277Z" fill="white"/>
<path d="M252.869 321.622L233.355 414.299H389.049L369.536 321.622H252.869Z" fill="#DBD9DD"/>
<path d="M482.258 63.2872H140.147C131.636 63.2872 124.785 70.1292 124.785 78.6298V331.782C124.785 340.282 131.636 347.124 140.147 347.124H482.465C490.977 347.124 497.827 340.282 497.827 331.782V78.6298C497.62 70.1292 490.769 63.2872 482.258 63.2872Z" fill="url(#paint12_linear_659_1890)"/>
<path d="M124.785 331.574C124.785 340.075 131.636 346.917 140.147 346.917H482.465C490.977 346.917 497.827 340.075 497.827 331.574V304.621H124.785V331.574Z" fill="white"/>
<path d="M488.901 83.6057H133.504V290.108H488.901V83.6057Z" fill="url(#paint13_linear_659_1890)"/>
<path d="M488.901 290.108V83.6057H133.504L488.901 290.108Z" fill="#D7F4F9"/>
<path d="M407.109 403.311H215.295C208.652 403.311 203.047 408.702 203.047 415.543C203.047 422.178 208.444 427.776 215.295 427.776H407.109C413.752 427.776 419.357 422.385 419.357 415.543C419.15 408.702 413.752 403.311 407.109 403.311Z" fill="white"/>
<path d="M213.219 222.311H122.502C117.312 222.311 113.16 226.457 113.16 231.64V418.446C113.16 423.629 117.312 427.776 122.502 427.776H213.219C218.409 427.776 222.561 423.629 222.561 418.446V231.64C222.561 226.457 218.201 222.311 213.219 222.311Z" fill="url(#paint14_linear_659_1890)"/>
<path d="M216.749 234.543H118.766V403.311H216.749V234.543Z" fill="url(#paint15_linear_659_1890)"/>
<path d="M216.749 403.518V234.543H118.766L216.749 403.518Z" fill="#D7F4F9"/>
<path d="M167.757 370.138C192.751 370.138 213.012 349.902 213.012 324.94C213.012 299.977 192.751 279.741 167.757 279.741C142.763 279.741 122.502 299.977 122.502 324.94C122.502 349.902 142.763 370.138 167.757 370.138Z" fill="white"/>
<path d="M144.714 300.682V350.649L181.665 350.234L190.799 344.636V293.218H152.187C148.035 293.218 144.714 296.535 144.714 300.682Z" fill="#27BFE2"/>
<path d="M144.714 300.682V350.649H152.395V293.218H151.98C148.035 293.218 144.714 296.535 144.714 300.682Z" fill="#0CACC6"/>
<path d="M144.714 350.649C144.714 353.966 147.413 356.661 150.734 356.661H190.799V355.832C188.101 355.625 186.025 353.344 186.025 350.649C186.025 347.954 188.101 345.673 190.799 345.466V344.636H150.734C147.413 344.636 144.714 347.332 144.714 350.649Z" fill="#028B99"/>
<path d="M145.544 350.649C145.544 353.551 147.827 355.832 150.734 355.832H190.799C188.1 355.625 186.024 353.344 186.024 350.649C186.024 347.954 188.1 345.673 190.799 345.466H150.734C147.827 345.466 145.544 347.746 145.544 350.649Z" fill="#FCFCD4"/>
<path d="M221.73 416.166C221.73 421.349 225.882 425.288 230.864 425.288H291.896V424.044C287.745 423.629 284.631 420.312 284.631 415.958C284.631 411.604 287.745 408.287 291.896 407.872V406.628H230.864C225.675 407.043 221.73 410.982 221.73 416.166Z" fill="#84D2E6"/>
<path d="M222.769 416.165C222.769 420.519 226.298 424.251 230.865 424.251H291.897C287.745 423.837 284.631 420.519 284.631 416.165C284.631 411.812 287.745 408.494 291.897 408.08H230.865C226.505 408.08 222.769 411.812 222.769 416.165Z" fill="#FCFCD4"/>
<path d="M226.505 397.92C226.505 403.104 230.657 407.043 235.639 407.043H296.671V405.799C292.519 405.384 289.405 402.067 289.405 397.713C289.405 393.566 292.519 390.042 296.671 389.627V388.798H235.639C230.657 388.798 226.505 392.944 226.505 397.92Z" fill="#DD4536"/>
<path d="M227.75 397.92C227.75 402.274 231.279 406.006 235.846 406.006H296.878C292.726 405.592 289.612 402.274 289.612 397.92C289.612 393.774 292.726 390.249 296.878 389.834H235.846C231.279 389.834 227.75 393.566 227.75 397.92Z" fill="#FCFCD4"/>
<path d="M234.186 379.675C234.186 384.858 238.337 388.798 243.32 388.798H304.351V387.554C300.2 387.139 297.086 383.822 297.086 379.468C297.086 375.321 300.2 371.797 304.351 371.382V370.138H243.32C238.337 370.553 234.186 374.699 234.186 379.675Z" fill="#2BB673"/>
<path d="M235.431 379.675C235.431 384.029 238.96 387.761 243.527 387.761H304.559C300.407 387.346 297.293 384.029 297.293 379.675C297.293 375.529 300.407 372.004 304.559 371.589H243.527C238.96 371.797 235.431 375.321 235.431 379.675Z" fill="#FCFCD4"/>
<path d="M226.09 361.637C226.09 366.821 230.242 370.76 235.224 370.76H296.256V369.516C292.104 369.101 288.99 365.784 288.99 361.43C288.99 357.076 292.104 353.759 296.256 353.344V352.1H235.224C230.242 352.307 226.09 356.454 226.09 361.637Z" fill="#1C75BC"/>
<path d="M227.335 361.637C227.335 365.991 230.864 369.723 235.431 369.723H296.463C292.311 369.309 289.197 365.991 289.197 361.637C289.197 357.283 292.311 353.966 296.463 353.551H235.431C230.864 353.551 227.335 357.076 227.335 361.637Z" fill="#FCFCD4"/>
<path d="M398.599 213.395C397.768 215.676 394.654 227.701 399.221 228.738C403.996 229.982 406.072 230.189 412.715 226.664C419.358 223.14 428.077 179.186 428.077 179.186C428.077 179.186 418.527 180.43 412.507 185.82C406.487 191.418 399.429 211.322 398.599 213.395Z" fill="#14035B"/>
<path d="M432.643 423.215C432.851 420.312 431.19 412.848 431.19 412.848H420.811C420.811 412.848 403.581 419.897 400.467 420.934C397.353 421.971 396.938 424.666 396.73 426.532C396.522 428.191 409.393 429.849 411.677 429.435C414.168 429.02 417.282 426.947 417.697 427.154C418.32 427.361 418.942 428.813 418.942 428.813C418.942 428.813 431.398 428.813 432.228 428.398C433.266 427.983 432.436 425.91 432.643 423.215Z" fill="#0E0E30"/>
<path d="M460.668 426.117C460.875 423.215 459.215 415.751 459.215 415.751H448.835C448.835 415.751 431.605 422.8 428.491 423.837C425.377 424.873 424.962 427.569 424.754 429.435C424.547 431.093 437.418 432.752 439.701 432.337C442.192 431.923 445.306 429.849 445.721 430.057C446.344 430.264 446.967 431.715 446.967 431.715C446.967 431.715 459.422 431.715 460.253 431.301C461.083 430.886 460.46 428.813 460.668 426.117Z" fill="#0E0E30"/>
<path d="M454.855 337.38C455.27 327.842 458.799 273.521 458.177 266.887C457.554 260.252 411.884 263.984 411.884 263.984C411.884 263.984 403.995 325.976 402.957 341.734C401.919 357.491 415.413 414.714 416.658 415.129C417.904 415.544 432.435 414.922 432.435 413.47C432.435 412.019 421.641 351.478 422.471 345.051C423.509 338.624 432.643 289.901 432.643 289.901C432.643 289.901 435.549 339.868 435.342 343.392C435.134 346.917 441.362 417.617 443.022 418.032C444.683 418.446 459.837 418.032 460.253 416.995C460.46 415.958 454.44 346.917 454.855 337.38Z" fill="url(#paint16_linear_659_1890)"/>
<path d="M432.021 292.389C432.229 291.352 432.229 290.523 432.436 289.901C432.436 289.901 425.793 291.974 424.548 298.816C423.095 305.658 419.981 335.306 417.697 339.66C415.414 344.014 408.771 345.673 410.431 348.161C412.092 350.649 414.998 349.197 417.282 358.113C419.565 367.235 426.624 400.823 425.378 406.214C424.755 409.324 421.849 412.641 420.188 415.336C424.963 415.336 432.229 414.714 432.229 413.47C432.229 412.019 421.434 351.478 422.264 345.051C423.095 339.453 430.153 302.341 432.021 292.389Z" fill="#14035B"/>
<path d="M454.856 337.38C455.271 327.842 458.8 273.521 458.177 266.887C457.555 260.252 411.884 263.984 411.884 263.984C411.884 263.984 411.262 269.375 410.224 277.461C413.753 280.156 418.32 282.851 423.094 282.851C433.266 282.851 446.552 279.119 448.42 289.486C450.289 299.853 445.514 334.062 446.967 348.368C448.628 362.674 454.025 403.518 453.61 410.36C453.195 414.922 448.213 416.58 447.175 418.446C452.157 418.446 460.046 418.031 460.253 417.202C460.461 415.958 454.441 346.917 454.856 337.38Z" fill="#D3D3D3"/>
<path d="M445.099 178.149C438.041 176.49 430.983 178.356 425.585 180.637C419.773 183.125 415.621 188.723 414.79 194.943C414.375 198.467 413.753 203.236 412.715 208.834C410.223 223.555 409.601 268.131 409.601 268.131C409.601 268.131 409.393 272.485 428.907 274.558C448.42 276.631 460.668 271.034 460.668 271.034C460.668 271.034 460.253 237.446 462.329 219.201C465.028 194.736 460.045 181.674 445.099 178.149Z" fill="url(#paint17_linear_659_1890)"/>
<path d="M440.533 178.149C436.173 177.734 432.229 178.564 428.908 180.222C428.908 180.222 424.963 182.296 424.548 184.991C424.133 187.686 426.417 189.76 430.776 189.76C434.928 189.967 437.834 189.967 441.156 187.894C444.477 185.82 446.553 181.674 446.345 180.43C445.723 179.393 444.892 178.564 440.533 178.149Z" fill="#230482"/>
<path d="M409.809 194.321C407.11 194.321 404.204 195.772 403.581 198.467C402.751 201.163 400.675 207.175 400.675 207.175C400.675 207.175 407.11 209.456 407.525 209.249C407.941 209.041 408.771 204.895 408.978 204.273C409.186 203.651 409.809 203.651 411.677 202.821C413.753 201.992 413.545 200.126 413.545 200.126C413.545 200.126 415.829 201.163 417.075 200.541C418.113 199.919 412.715 194.321 409.809 194.321Z" fill="#FFC2A9"/>
<path d="M401.09 204.895C401.09 204.895 396.73 209.456 395.07 217.127C393.617 224.799 397.976 231.019 403.789 229.153C409.601 227.287 410.224 208.834 409.186 208.005C408.148 207.175 401.09 204.895 401.09 204.895Z" fill="url(#paint18_linear_659_1890)"/>
<path d="M416.036 193.491C415.829 192.662 414.998 192.04 414.168 192.247L406.487 193.906C405.657 194.113 405.034 194.943 405.241 195.772L408.77 211.944C408.978 212.773 409.808 213.395 410.639 213.188L418.32 211.529C419.15 211.322 419.773 210.493 419.565 209.663L416.036 193.491Z" fill="#0E0E30"/>
<path d="M421.849 208.627C420.396 205.931 419.773 199.711 418.527 199.919C417.282 200.126 418.527 205.931 417.904 206.346C417.282 206.761 413.96 205.724 411.677 204.065C409.393 202.407 406.902 199.089 406.694 200.541C406.487 201.785 408.77 204.687 409.186 205.309L409.393 205.517C409.393 205.517 409.393 205.517 409.186 205.309C408.77 204.687 406.902 202.821 406.694 203.858C406.279 205.102 408.77 207.797 408.77 207.797C408.77 207.797 406.279 205.724 406.279 206.761C406.279 208.005 408.355 210.285 408.355 210.285C408.355 210.285 406.902 208.834 406.902 209.871C406.902 210.907 408.148 212.773 411.469 214.225C414.998 215.676 418.527 214.639 420.603 215.883C422.679 217.127 424.547 218.579 424.755 218.371C425.17 218.164 427.246 212.773 427.246 212.773C427.246 212.773 423.302 211.322 421.849 208.627Z" fill="#FFC2A9"/>
<path d="M409.186 205.309C409.393 205.517 409.393 205.517 409.186 205.309C409.393 205.517 409.393 205.517 409.186 205.309Z" fill="#FFC2A9"/>
<path d="M444.684 177.942C440.948 179.6 446.553 185.198 448.628 196.187C450.289 204.687 453.403 217.127 449.044 217.957C444.684 218.786 426.209 210.493 426.209 210.493L421.642 219.201C421.642 219.201 451.535 237.653 457.555 235.372C463.575 233.092 466.689 205.724 464.613 194.528C461.707 179.393 444.684 177.942 444.684 177.942Z" fill="url(#paint19_linear_659_1890)"/>
<path d="M444.684 177.942C444.061 178.149 443.646 178.564 443.646 179.186C448.006 180.844 456.102 184.576 458.178 189.345C460.876 195.979 460.876 210.7 460.253 219.823C459.631 228.738 455.479 229.775 446.137 227.079C438.872 225.006 427.454 219.615 423.095 217.335L422.057 219.408C422.057 219.408 451.95 237.86 457.97 235.58C463.99 233.299 467.104 205.931 465.028 194.735C461.707 179.393 444.684 177.942 444.684 177.942Z" fill="#D3D3D3"/>
<path d="M438.041 167.16L431.813 173.38C431.813 173.38 432.643 177.32 431.19 179.6C429.737 181.674 424.755 183.747 426.208 186.235C427.661 188.723 436.588 189.552 439.909 186.857C443.231 184.162 446.344 181.674 444.891 180.015C440.532 175.246 438.041 167.16 438.041 167.16Z" fill="#EFAB92"/>
<path d="M439.494 167.16L431.813 173.38C431.813 173.38 432.643 177.32 431.19 179.6C430.567 180.637 428.907 181.674 427.661 182.71C429.114 183.332 431.19 183.954 433.681 183.54C438.041 182.71 439.079 184.369 440.117 186.65C443.231 184.162 446.137 181.881 445.099 180.015C441.57 173.588 439.494 167.16 439.494 167.16Z" fill="#EF9D84"/>
<path d="M423.718 144.976C416.244 147.049 414.169 152.647 413.961 156.794C413.961 156.794 414.169 162.392 415.622 164.258C417.075 166.124 418.113 167.575 418.528 169.648C418.943 171.722 421.434 178.978 428.077 182.296C434.72 185.406 439.91 174.624 441.571 170.478C443.024 166.124 442.401 155.55 439.91 150.574C437.626 145.598 431.191 142.903 423.718 144.976Z" fill="#FFC2A9"/>
<path d="M423.718 144.976C416.244 147.049 414.169 152.647 413.961 156.794C413.961 156.794 413.961 158.867 414.376 160.94C418.32 159.696 424.756 158.038 426.832 160.111C429.945 163.221 429.53 166.953 431.399 167.575C433.059 168.404 435.758 169.441 436.173 172.551C436.588 175.246 435.343 180.637 429.53 182.71C435.55 184.162 440.325 174.417 441.778 170.478C443.231 166.124 442.609 155.55 440.117 150.574C437.626 145.598 431.191 142.903 423.718 144.976Z" fill="#EFAB92"/>
<path d="M440.532 144.769C440.532 144.769 437.418 137.305 429.737 137.719C422.056 138.341 412.922 145.598 409.601 145.391C406.279 145.183 403.165 144.354 403.996 146.427C404.826 148.501 406.279 149.123 406.072 149.745C405.657 150.367 402.75 149.33 404.203 151.611C405.864 153.891 407.525 154.306 407.525 154.306C407.525 154.306 406.487 155.342 406.902 156.794C407.317 158.038 407.732 159.489 411.884 158.867C416.036 158.245 419.15 157.83 426.416 154.513C426.416 154.513 428.699 158.245 432.021 158.867C435.342 159.489 435.342 163.843 436.173 162.599C437.003 161.355 436.795 155.757 439.286 157.416C441.778 159.074 440.947 164.258 439.909 165.294C439.909 165.294 441.985 168.404 443.853 167.16C445.722 165.916 446.137 156.586 445.307 152.025C444.061 147.671 440.532 144.769 440.532 144.769Z" fill="#0E0E30"/>
<path d="M368.083 413.47C360.817 412.434 359.572 413.056 358.534 410.36C357.496 407.458 344.417 409.531 344.417 409.531C344.417 409.531 343.172 414.3 342.964 418.446C342.757 422.593 343.379 423.837 343.379 423.837C343.379 423.837 354.174 425.703 364.969 424.459C375.764 423.422 378.255 423.422 378.67 422.593C379.085 421.763 379.085 420.105 378.462 419.275C377.632 418.239 375.349 414.507 368.083 413.47Z" fill="#0E0E30"/>
<path d="M296.879 270.619C289.614 270.826 287.953 274.351 287.538 282.229C287.33 290.108 289.198 303.584 289.198 303.584L304.768 301.926C304.768 301.926 304.768 290.315 303.522 281.4C302.277 272.485 296.879 270.619 296.879 270.619Z" fill="#191F54"/>
<path d="M295.841 329.086C286.915 327.013 271.345 327.22 265.948 340.49C260.758 353.759 274.875 355.003 281.725 356.869C288.576 358.735 324.489 358.735 327.603 358.942C330.717 359.149 332.17 371.382 334.868 378.431C337.567 385.48 342.965 412.434 342.965 412.434L358.742 410.568C359.987 404.97 352.514 341.112 347.532 336.758C342.965 332.818 295.841 329.086 295.841 329.086Z" fill="url(#paint20_linear_659_1890)"/>
<path d="M295.841 329.086C291.066 328.05 284.839 327.428 278.818 329.294C281.517 330.33 286.084 331.16 294.803 330.745C294.803 330.745 331.962 333.233 336.944 336.965C341.926 340.697 345.87 348.161 346.908 357.698C347.739 365.369 353.344 402.274 353.966 411.397L358.949 410.982C360.194 405.384 356.458 345.258 347.739 337.172C337.982 327.842 295.841 329.086 295.841 329.086Z" fill="#D3D3D3"/>
<path d="M323.036 423.215C315.77 421.349 314.109 420.934 313.279 418.031C312.449 415.129 299.37 415.543 299.37 415.543C299.37 415.543 297.502 420.105 296.879 424.044C296.257 427.983 296.672 429.435 296.672 429.435C296.672 429.435 307.259 432.337 318.054 432.545C328.848 432.545 331.34 432.13 331.755 431.093C332.17 430.057 332.585 429.435 331.962 428.605C331.339 427.776 330.094 425.081 323.036 423.215Z" fill="#0E0E30"/>
<path d="M263.456 331.367C260.55 331.367 257.851 332.818 256.191 335.306C252.869 339.868 249.34 347.746 256.191 352.515C266.778 359.564 308.711 357.491 309.127 359.979C309.542 362.467 297.501 418.032 297.501 418.032C297.501 418.032 310.165 420.312 313.071 419.275C315.977 418.239 336.113 354.381 333 342.356C330.716 332.196 278.818 331.367 263.456 331.367Z" fill="url(#paint21_linear_659_1890)"/>
<path d="M332.792 341.526L332.585 341.319C332.377 341.111 332.377 340.904 332.169 340.697C331.962 340.489 331.962 340.489 331.754 340.282C331.547 340.075 331.339 339.867 331.131 339.867C330.924 339.66 330.716 339.66 330.509 339.453C330.301 339.245 330.093 339.245 329.886 339.038C329.678 338.831 329.471 338.831 329.263 338.623C329.055 338.416 328.848 338.416 328.433 338.209C328.225 338.001 328.018 338.001 327.602 337.794C327.395 337.587 326.98 337.587 326.772 337.379C326.564 337.379 326.149 337.172 325.942 337.172C325.526 336.965 325.319 336.965 324.904 336.757C324.696 336.757 324.281 336.55 323.866 336.55C323.451 336.55 323.243 336.343 322.828 336.343C322.413 336.343 322.205 336.135 321.79 336.135C321.375 336.135 321.167 335.928 320.752 335.928C320.337 335.928 319.921 335.721 319.714 335.721C319.299 335.721 318.883 335.513 318.468 335.513C318.053 335.513 317.638 335.306 317.223 335.306C316.808 335.306 316.392 335.099 315.977 335.099C315.562 335.099 315.147 334.891 314.732 334.891C314.316 334.891 313.901 334.684 313.486 334.684C313.071 334.684 312.656 334.477 312.241 334.477C311.825 334.477 311.41 334.269 310.995 334.269C310.58 334.269 310.165 334.062 309.749 334.062C309.334 334.062 308.919 333.855 308.296 333.855C307.881 333.855 307.466 333.647 306.843 333.647C306.428 333.647 305.805 333.44 305.39 333.44C304.975 333.44 304.56 333.44 303.937 333.233C303.522 333.233 302.899 333.233 302.484 333.026C302.069 333.026 301.446 333.025 301.031 332.818C300.615 332.818 299.993 332.818 299.577 332.611C299.162 332.611 298.54 332.611 298.124 332.404C297.709 332.404 297.086 332.403 296.671 332.196C296.256 332.196 295.633 332.196 295.218 332.196C294.803 332.196 294.18 332.196 293.765 332.196C293.35 332.196 292.727 332.196 292.312 332.196C291.897 332.196 291.274 332.196 290.859 332.196C290.443 332.196 289.821 332.196 289.405 332.196C288.99 332.196 288.368 332.196 287.952 332.196C287.537 332.196 287.122 332.196 286.499 332.196C286.084 332.196 285.461 332.196 285.046 332.196C284.631 332.196 284.008 332.196 283.593 332.196C283.178 332.196 282.763 332.196 282.347 332.196C281.932 332.196 281.517 332.196 280.894 332.196C280.479 332.196 280.064 332.196 279.649 332.196C279.233 332.196 278.818 332.196 278.403 332.196C277.988 332.196 277.573 332.196 277.158 332.196C276.742 332.196 276.327 332.196 275.912 332.196C275.497 332.196 275.082 332.196 274.666 332.196C274.251 332.196 273.836 332.196 273.421 332.196C273.006 332.196 272.591 332.196 272.175 332.196C271.76 332.196 271.345 332.196 271.137 332.196C270.722 332.196 270.307 332.196 270.099 332.196C269.684 332.196 269.477 332.196 269.062 332.196C268.646 332.196 268.439 332.196 268.024 332.196C267.608 332.196 267.401 332.196 267.193 332.196C266.778 332.196 266.57 332.196 266.155 332.196C265.948 332.196 265.532 332.196 265.325 332.196C265.117 332.196 264.702 332.196 264.495 332.196C264.287 332.196 263.872 332.196 263.664 332.196C263.457 332.196 263.457 332.196 263.249 332.196C260.55 332.196 258.059 333.44 256.398 335.513C257.229 338.416 258.267 339.245 267.608 341.733C281.932 345.258 306.22 347.331 312.033 347.539C317.846 347.746 322.62 350.856 323.866 358.527C324.904 365.991 319.921 387.761 318.053 394.81C316.185 401.86 311.825 413.677 304.975 415.751C302.069 416.58 299.785 416.995 298.124 416.787C297.917 418.239 297.709 419.068 297.709 419.068C297.709 419.068 298.955 419.275 300.823 419.483C301.446 419.483 302.069 419.69 302.899 419.69C303.107 419.69 303.107 419.69 303.314 419.69C304.145 419.69 304.767 419.897 305.598 419.897H305.805C308.919 420.312 312.033 420.312 313.279 419.897C315.354 419.275 325.526 388.798 330.509 365.991C330.716 364.955 330.924 363.918 331.131 362.881C332.169 357.905 333 353.344 333.207 349.819C333.415 346.917 333.415 344.636 333 343.185C333.207 342.148 333 341.733 332.792 341.526Z" fill="#D3D3D3"/>
<path d="M299.993 275.595C296.256 266.679 290.236 265.021 280.064 263.984C280.064 263.984 268.854 264.191 261.588 272.485C254.53 280.778 248.302 321.622 248.302 329.708C248.302 337.794 247.68 349.197 254.945 351.893C262.211 354.588 252.454 339.66 297.709 328.879C297.709 328.879 291.066 315.195 294.388 302.755C297.294 292.596 303.729 284.51 299.993 275.595Z" fill="url(#paint22_linear_659_1890)"/>
<path d="M291.482 257.972C290.859 257.35 282.763 254.654 282.763 254.654C282.763 254.654 281.31 261.496 279.442 263.984C277.573 266.265 275.497 268.546 278.196 271.241C281.102 273.936 289.406 276.839 290.652 274.351C291.897 271.863 288.991 269.582 288.783 265.85C288.576 262.118 292.105 258.386 291.482 257.972Z" fill="#E29D88"/>
<path d="M303.729 239.104C297.086 235.787 290.651 237.031 287.537 241.178C284.423 245.117 281.517 254.862 282.14 259.216C282.762 263.57 285.461 274.558 292.312 272.899C299.162 271.241 302.899 264.814 303.729 263.155C304.559 261.289 305.805 260.252 307.466 258.801C309.126 257.35 310.372 252.166 310.372 252.166C310.995 248.227 310.372 242.422 303.729 239.104Z" fill="#FFC2A9"/>
<path d="M303.729 239.104C297.086 235.787 290.651 237.031 287.537 241.178C284.423 245.117 281.517 254.862 282.14 259.216C282.762 263.155 285.253 273.107 291.066 272.899C286.084 269.997 286.084 264.606 286.914 262.118C287.952 259.216 290.443 258.801 292.312 258.386C294.18 257.972 294.595 254.654 297.917 252.374C300.2 250.922 305.805 253.618 309.334 255.484C310.164 253.618 310.58 251.752 310.58 251.752C310.995 248.227 310.372 242.422 303.729 239.104Z" fill="#EFAB92"/>
<path d="M308.919 237.031C305.805 234.543 302.276 232.055 298.539 232.47C298.539 231.433 298.539 230.604 298.539 229.567C297.501 229.774 296.463 230.396 295.841 231.226C295.01 230.189 293.972 229.36 292.727 229.152C293.142 229.982 293.557 231.018 293.765 231.848C290.858 231.018 289.198 232.884 287.329 234.75C285.669 236.616 284.008 237.86 282.97 240.141C281.102 244.495 279.856 253.618 281.309 255.276C282.762 256.935 285.461 254.24 285.461 254.24C284.838 252.996 284.838 247.812 287.745 246.568C290.651 245.324 288.99 250.922 289.82 252.166C290.443 253.41 291.274 249.264 294.595 249.264C297.917 249.264 301.03 246.154 301.03 246.154C301.238 245.946 305.39 249.678 305.805 249.886C307.673 251.13 309.749 252.166 311.825 251.959C313.693 251.752 315.354 250.922 317.015 250.093C315.977 249.056 315.147 247.812 314.524 246.568C317.223 246.568 319.506 244.288 319.714 241.592C315.354 242.214 311.825 239.519 308.919 237.031Z" fill="#0E0E30"/>
<path d="M268.439 335.513L301.031 340.489L336.945 329.294L337.152 327.22L268.439 333.855V335.513Z" fill="#617375"/>
<path d="M268.439 333.855L300.824 338.209C300.824 338.209 336.114 327.635 336.945 327.635C337.775 327.635 306.013 324.318 306.013 324.318L268.439 333.855Z" fill="#889CA0"/>
<path d="M279.441 333.233L300.616 336.136C312.656 332.611 320.545 330.123 325.942 328.672C319.922 328.05 312.241 327.22 306.013 326.598L279.441 333.233Z" fill="#617375"/>
<path d="M314.732 318.72C312.241 318.305 305.598 310.841 304.768 309.39C304.145 307.938 304.145 301.926 304.145 301.926L294.596 302.755C294.596 302.755 294.596 311.67 295.426 314.573C296.256 317.476 309.127 321.415 310.58 321.83C312.033 322.244 310.58 324.318 311.826 325.354C313.071 326.184 313.279 323.903 313.902 323.074C314.524 322.244 315.562 325.354 316.808 326.598C318.054 327.842 320.96 327.428 322.413 326.598C323.659 325.769 323.036 322.659 322.205 321C321.375 319.342 317.016 319.134 314.732 318.72Z" fill="#FFC2A9"/>
<path d="M302.691 313.536C298.747 310.426 298.539 305.865 299.162 302.34L294.803 302.755C294.803 302.755 294.803 311.67 295.633 314.573C296.463 317.476 309.334 321.415 310.787 321.83C312.24 322.244 310.787 324.318 312.033 325.354C313.278 326.184 313.486 323.903 314.109 323.074C314.732 322.244 315.769 325.354 317.015 326.598C318.261 327.842 321.167 327.428 322.62 326.598C323.45 325.976 323.45 324.11 323.035 322.659C316.807 320.378 307.258 317.061 302.691 313.536Z" fill="#EFAB92"/>
<path d="M288.161 317.89C284.631 317.061 258.06 308.975 257.229 306.902C256.399 304.621 260.966 299.023 260.966 299.023L249.133 296.121C249.133 296.121 243.944 306.902 246.019 312.292C247.888 317.683 265.118 319.549 278.611 321.208L285.254 322.866C285.254 322.866 286.707 325.769 289.821 326.598C292.935 327.428 295.426 327.013 296.672 328.05C298.125 329.086 299.578 331.782 300.408 330.952C301.239 330.123 302.9 324.732 302.069 321.622C301.446 318.512 291.482 318.72 288.161 317.89Z" fill="#FFC2A9"/>
<path d="M290.028 322.037C288.783 319.756 259.305 314.366 252.662 311.67C247.68 309.597 250.586 300.889 252.039 296.95L248.925 296.121C248.925 296.121 243.736 306.902 245.811 312.292C247.68 317.683 264.91 319.549 278.403 321.208L285.046 322.866C285.046 322.866 286.499 325.769 289.613 326.598C292.727 327.428 295.218 327.013 296.464 328.05C297.917 329.086 299.37 331.782 300.2 330.952C300.616 330.538 301.446 328.257 301.861 325.769C298.54 324.525 290.859 323.903 290.028 322.037Z" fill="#EFAB92"/>
<path d="M267.193 268.338C255.153 269.167 246.642 296.535 246.642 296.535L261.588 302.755C261.588 302.755 274.251 285.754 274.251 277.253C274.459 268.545 267.193 268.338 267.193 268.338Z" fill="#191F54"/>
<path d="M349.4 295.706L314.939 304.206C313.694 304.414 312.864 305.243 312.448 306.487L300.823 338.416L337.152 327.428L350.645 297.779C351.476 296.328 350.438 295.499 349.4 295.706Z" fill="#617375"/>
<path d="M350.23 296.535L315.77 305.036C314.524 305.243 313.694 306.072 313.278 307.316L301.653 339.245L337.982 328.257L350.853 297.572C351.06 296.95 350.645 296.535 350.23 296.535Z" fill="#889CA0"/>
<path d="M588.96 422.178H23.0658C20.1595 422.178 17.876 424.459 17.876 427.361V434.825C17.876 437.728 20.1595 440.009 23.0658 440.009H588.96C591.867 440.009 594.15 437.728 594.15 434.825V427.361C594.15 424.459 591.867 422.178 588.96 422.178Z" fill="url(#paint23_linear_659_1890)"/>
<path d="M545.573 65.5679C536.647 57.482 523.361 53.5427 511.736 57.0673C506.339 58.726 501.564 61.6286 497.827 65.7752C492.43 75.3125 494.921 87.545 500.318 97.0823C508.207 110.973 522.738 121.755 538.93 122.584C544.535 122.999 550.763 121.962 554.915 118.023C560.312 113.254 561.35 105.168 560.728 97.9116C559.482 85.6791 554.5 73.6538 545.573 65.5679Z" fill="url(#paint24_linear_659_1890)"/>
<defs>
<linearGradient id="paint0_linear_659_1890" x1="467.587" y1="252.564" x2="616.891" y2="252.564" gradientUnits="userSpaceOnUse">
<stop offset="1.33195e-07" stop-color="#CCE8FC"/>
<stop offset="0.1441" stop-color="#C8E6FB"/>
<stop offset="0.2873" stop-color="#BCDFF7"/>
<stop offset="0.4302" stop-color="#A8D3F0"/>
<stop offset="0.573" stop-color="#8CC2E7"/>
<stop offset="0.7157" stop-color="#68ADDB"/>
<stop offset="0.8578" stop-color="#3C93CD"/>
<stop offset="0.9981" stop-color="#0974BC"/>
<stop offset="1" stop-color="#0874BC"/>
</linearGradient>
<linearGradient id="paint1_linear_659_1890" x1="11.3886" y1="262.006" x2="547.881" y2="262.006" gradientUnits="userSpaceOnUse">
<stop offset="1.33195e-07" stop-color="#CCE8FC"/>
<stop offset="0.1441" stop-color="#C8E6FB"/>
<stop offset="0.2873" stop-color="#BCDFF7"/>
<stop offset="0.4302" stop-color="#A8D3F0"/>
<stop offset="0.573" stop-color="#8CC2E7"/>
<stop offset="0.7157" stop-color="#68ADDB"/>
<stop offset="0.8578" stop-color="#3C93CD"/>
<stop offset="0.9981" stop-color="#0974BC"/>
<stop offset="1" stop-color="#0874BC"/>
</linearGradient>
<linearGradient id="paint2_linear_659_1890" x1="60.7335" y1="319.737" x2="6.79905" y2="268.395" gradientUnits="userSpaceOnUse">
<stop stop-color="#006838"/>
<stop offset="1" stop-color="#47E51D"/>
</linearGradient>
<linearGradient id="paint3_linear_659_1890" x1="96.276" y1="335.842" x2="136.932" y2="301.52" gradientUnits="userSpaceOnUse">
<stop stop-color="#006838"/>
<stop offset="1" stop-color="#47E51D"/>
</linearGradient>
<linearGradient id="paint4_linear_659_1890" x1="107.085" y1="302.927" x2="136.984" y2="216.444" gradientUnits="userSpaceOnUse">
<stop stop-color="#006838"/>
<stop offset="1" stop-color="#47E51D"/>
</linearGradient>
<linearGradient id="paint5_linear_659_1890" x1="74.6916" y1="306.791" x2="53.1924" y2="251.513" gradientUnits="userSpaceOnUse">
<stop stop-color="#006838"/>
<stop offset="1" stop-color="#47E51D"/>
</linearGradient>
<linearGradient id="paint6_linear_659_1890" x1="77.0031" y1="281.049" x2="77.0153" y2="280.862" gradientUnits="userSpaceOnUse">
<stop stop-color="#006838"/>
<stop offset="1" stop-color="#47E51D"/>
</linearGradient>
<linearGradient id="paint7_linear_659_1890" x1="81.6274" y1="331.154" x2="86.1383" y2="262.345" gradientUnits="userSpaceOnUse">
<stop stop-color="#006838"/>
<stop offset="1" stop-color="#47E51D"/>
</linearGradient>
<linearGradient id="paint8_linear_659_1890" x1="93.6751" y1="252.978" x2="93.7596" y2="251.689" gradientUnits="userSpaceOnUse">
<stop stop-color="#006838"/>
<stop offset="1" stop-color="#47E51D"/>
</linearGradient>
<linearGradient id="paint9_linear_659_1890" x1="48.436" y1="386.874" x2="119.355" y2="386.874" gradientUnits="userSpaceOnUse">
<stop stop-color="#700D2A"/>
<stop offset="0.5645" stop-color="#DD4536"/>
<stop offset="1" stop-color="#F7A458"/>
</linearGradient>
<linearGradient id="paint10_linear_659_1890" x1="39.2854" y1="343.736" x2="128.506" y2="343.736" gradientUnits="userSpaceOnUse">
<stop stop-color="#700D2A"/>
<stop offset="0.5645" stop-color="#DD4536"/>
<stop offset="1" stop-color="#F7A458"/>
</linearGradient>
<linearGradient id="paint11_linear_659_1890" x1="472.698" y1="349.972" x2="577.073" y2="349.972" gradientUnits="userSpaceOnUse">
<stop stop-color="#700D2A"/>
<stop offset="0.5645" stop-color="#DD4536"/>
<stop offset="1" stop-color="#F7A458"/>
</linearGradient>
<linearGradient id="paint12_linear_659_1890" x1="311.205" y1="71.2463" x2="311.205" y2="334.918" gradientUnits="userSpaceOnUse">
<stop stop-color="#27AAE1"/>
<stop offset="1" stop-color="#0D1B5A"/>
</linearGradient>
<linearGradient id="paint13_linear_659_1890" x1="133.506" y1="186.91" x2="488.904" y2="186.91" gradientUnits="userSpaceOnUse">
<stop stop-color="#E4F2FF"/>
<stop offset="1" stop-color="#91D0C5"/>
</linearGradient>
<linearGradient id="paint14_linear_659_1890" x1="167.783" y1="227.681" x2="167.783" y2="428.106" gradientUnits="userSpaceOnUse">
<stop stop-color="#27AAE1"/>
<stop offset="1" stop-color="#0D1B5A"/>
</linearGradient>
<linearGradient id="paint15_linear_659_1890" x1="118.771" y1="319.012" x2="216.795" y2="319.012" gradientUnits="userSpaceOnUse">
<stop stop-color="#E4F2FF"/>
<stop offset="1" stop-color="#91D0C5"/>
</linearGradient>
<linearGradient id="paint16_linear_659_1890" x1="402.645" y1="340.616" x2="460.059" y2="340.616" gradientUnits="userSpaceOnUse">
<stop stop-color="#23538C"/>
<stop offset="1" stop-color="#230482"/>
</linearGradient>
<linearGradient id="paint17_linear_659_1890" x1="409.725" y1="226.321" x2="463.042" y2="226.321" gradientUnits="userSpaceOnUse">
<stop stop-color="#E4F2FF"/>
<stop offset="1" stop-color="#91D0C5"/>
</linearGradient>
<linearGradient id="paint18_linear_659_1890" x1="394.817" y1="217.232" x2="409.538" y2="217.232" gradientUnits="userSpaceOnUse">
<stop stop-color="#23538C"/>
<stop offset="1" stop-color="#230482"/>
</linearGradient>
<linearGradient id="paint19_linear_659_1890" x1="421.578" y1="206.824" x2="465.156" y2="206.824" gradientUnits="userSpaceOnUse">
<stop stop-color="#23538C"/>
<stop offset="1" stop-color="#230482"/>
</linearGradient>
<linearGradient id="paint20_linear_659_1890" x1="264.853" y1="370.412" x2="359.261" y2="370.412" gradientUnits="userSpaceOnUse">
<stop stop-color="#23538C"/>
<stop offset="1" stop-color="#230482"/>
</linearGradient>
<linearGradient id="paint21_linear_659_1890" x1="252.263" y1="375.468" x2="333.492" y2="375.468" gradientUnits="userSpaceOnUse">
<stop stop-color="#23538C"/>
<stop offset="1" stop-color="#230482"/>
</linearGradient>
<linearGradient id="paint22_linear_659_1890" x1="248.47" y1="308.198" x2="301.167" y2="308.198" gradientUnits="userSpaceOnUse">
<stop stop-color="#91D01D"/>
<stop offset="1" stop-color="#F9ED32"/>
</linearGradient>
<linearGradient id="paint23_linear_659_1890" x1="305.957" y1="439.269" x2="305.957" y2="422.762" gradientUnits="userSpaceOnUse">
<stop stop-color="#700D2A"/>
<stop offset="0.5645" stop-color="#DD4536"/>
<stop offset="1" stop-color="#F7A458"/>
</linearGradient>
<linearGradient id="paint24_linear_659_1890" x1="494.64" y1="89.0975" x2="560.705" y2="89.0975" gradientUnits="userSpaceOnUse">
<stop offset="1.33195e-07" stop-color="#CCE8FC"/>
<stop offset="0.1441" stop-color="#C8E6FB"/>
<stop offset="0.2873" stop-color="#BCDFF7"/>
<stop offset="0.4302" stop-color="#A8D3F0"/>
<stop offset="0.573" stop-color="#8CC2E7"/>
<stop offset="0.7157" stop-color="#68ADDB"/>
<stop offset="0.8578" stop-color="#3C93CD"/>
<stop offset="0.9981" stop-color="#0974BC"/>
<stop offset="1" stop-color="#0874BC"/>
</linearGradient>
</defs>
</svg>
